<svg width="1059" height="287" xmlns="http://www.w3.org/2000/svg" xmlns:xlink="http://www.w3.org/1999/xlink" xml:space="preserve" overflow="hidden"><defs><clipPath id="clip0"><rect x="-2225" y="924" width="1059" height="287"/></clipPath></defs><g clip-path="url(#clip0)" transform="translate(2225 -924)"><path d="M-1890.79 1021.9C-1890.79 1033.55-1891.79 1042.72-1893.68 1049.3-1895.58 1055.92-1898.47 1061.57-1902.29 1066.29-1905.66 1070.5-1909.83 1073.6-1914.68 1075.36-1919.57 1077.19-1924.67 1078.08-1930.04 1078.08-1936.33 1078.08-1941.88 1077.08-1946.7 1075.12-1951.58 1073.15-1955.75 1070.05-1959.23 1065.74-1962.84 1061.33-1965.59 1055.37-1967.45 1047.99-1969.35 1040.61-1970.24 1031.89-1970.24 1021.86-1970.24 1010.62-1969.17 1001.28-1967.08 993.906-1964.91 986.461-1962.08 980.601-1958.43 976.361-1954.41 971.776-1950.14 968.708-1945.73 967.157-1941.33 965.606-1936.23 964.882-1930.55 964.882-1924.87 964.882-1919.6 965.813-1914.61 967.674-1909.69 969.501-1905.46 972.707-1901.95 977.188-1898.47 981.566-1895.71 987.391-1893.75 994.665-1891.79 1002.01-1890.76 1011.07-1890.76 1021.9M-1830 1021.55C-1830 991.39-1838.74 967.605-1856.23 950.129-1873.72 932.721-1898.47 924-1930.52 924-1962.57 924-1986.77 932.687-2004.46 949.991-2022.15 967.329-2031 991.183-2031 1021.59-2031 1051.99-2022.19 1075.53-2004.63 1092.94-1987.01 1110.31-1962.32 1119-1930.52 1119-1898.71 1119-1873.96 1110.31-1856.4 1092.94-1838.85 1075.53-1830 1051.75-1830 1021.59" fill="#FFFFFF" fill-rule="evenodd"/><path d="M-1433.21 929-1492.79 1031.57-1492.79 929.104-1552 929.104-1552 1113-1492.79 1113-1433.21 1014.22-1433.21 1113-1374 1113-1374 929.104-1433.21 929Z" fill="#FFFFFF" fill-rule="evenodd"/><path d="M-1173.54 961.199C-1178.64 953.038-1185.46 946.426-1194.07 941.26-1202.51 936.198-1211.64 932.857-1221.32 931.308-1231.03 929.758-1242.64 929-1256.1 929L-1348 929-1348 1113-1288.89 1113-1288.89 1073.88-1268.61 1073.88C-1240.98 1073.88-1166 1060.9-1166 991.849-1166 979.52-1168.55 969.327-1173.58 961.199ZM-1223 1014.3C-1224.9 1018.12-1227.83 1021.6-1231.89 1024.77-1236.13 1028.08-1241.4 1030.11-1247.67 1031.11-1253.93 1032.04-1261.68 1032.49-1271.02 1032.49L-1288.93 1032.49-1288.93 971.048-1267.85 971.048C-1260.86 971.048-1254.76 971.255-1249.49 971.599-1244.26 971.944-1239.64 972.977-1235.68 974.596-1230.03 976.937-1226 980.14-1223.69 984.238-1221.39 988.336-1220.21 993.192-1220.21 998.874-1220.21 1005.31-1221.14 1010.48-1223 1014.27Z" fill="#FFFFFF" fill-rule="evenodd"/><path d="M-1639.95 929-1699.52 1044.66-1758.95 929-1818 929-1818 1113-1759.05 1113-1759.05 1024.08-1711.31 1113-1687.69 1113-1639.95 1024.08-1639.95 1113-1581 1113-1581 929-1639.95 929Z" fill="#FFFFFF" fill-rule="evenodd"/><path d="M-1640 1152-1581 1152-1581 1211-1640 1211Z" fill="#FFFFFF" fill-rule="evenodd"/><path d="M-1729 1152-1670 1152-1670 1211-1729 1211Z" fill="#FFFFFF" fill-rule="evenodd"/><path d="M-1818 1152-1759 1152-1759 1211-1818 1211Z" fill="#FFFFFF" fill-rule="evenodd"/><path d="M-2051.5 959.411C-2056.57 951.3-2063.35 944.701-2071.92 939.579-2080.31 934.527-2089.39 931.228-2099.01 929.681-2108.67 928.134-2120.22 927.378-2133.61 927.378L-2225 927-2225 1116-2166.22 1116-2166.22 1071.59-2146.04 1071.59C-2117.82 1071.59-2044 1058.67-2044 989.932-2044 977.662-2046.53 967.522-2051.54 959.411ZM-2100.69 1012.27C-2102.57 1016.09-2105.49 1019.56-2109.53 1022.69-2113.74 1025.95-2118.98 1028.01-2125.22 1028.98-2131.45 1029.9-2139.16 1030.35-2148.44 1030.35L-2166.25 1030.35-2166.25 969.172-2145.29 969.172C-2138.34 969.172-2132.27 969.378-2127.03 969.722-2121.83 970.066-2117.24 971.097-2113.3 972.712-2107.68 975.015-2103.67 978.246-2101.38 982.336-2099.08 986.391-2097.92 991.272-2097.92 996.908-2097.92 1003.3-2098.84 1008.46-2100.69 1012.24Z" fill="#FFFFFF" fill-rule="evenodd"/></g></svg>